<?xml version="1.0" encoding="utf-8"?><svg viewBox="0 0 86 100" xmlns="http://www.w3.org/2000/svg" xmlns:xlink="http://www.w3.org/1999/xlink"><style>:root>svg{display:none}:root>svg:target{display:block}</style><svg fill="#0eb493" 
 viewBox="0 0 51 100" id="branding-icon"  xmlns="http://www.w3.org/2000/svg"><path d="M7.3 98.8c1.5-5 3.8-12.1 7-22.3 13.5-2.2 19.1 1.7 27.7-13.9-7 2.2-15.4-4-14.9-6.7s19.6 1.9 32.1-16.2c-15.8 3.5-20.8-4.3-18.8-5.4 4.7-2.7 18.6-1.1 26.1-8.5 3.8-3.8 5.6-13 4.1-16.3C68.7 5.5 57.3-.4 51 .1c-6.3.6-16.2 24.4-19.1 24.3-2.9-.2-3.5-10.7 1.6-20.5-5.4 2.4-15.3 10-18.3 16.5-5.8 12 .5 39.6-1.5 40.6S4.9 48.3 2.8 42.2C0 51.5-.1 61 8 73.6c-3.1 8.3-4.7 17.8-5 22.7-.1 3.9 3.6 4.7 4.3 2.5z"/></svg><svg fill="#0eb493" viewBox="0 0 86 90" id="consulting-icon" xmlns="http://www.w3.org/2000/svg"><path d="M79.1 30.1C71.2 11.7 58.5-2.3 52 .3 41.1 4.8 58.5 26.1 4.8 48 .2 49.9-1 57.4.9 62c1.9 4.5 8.3 9 12.9 7.1.8-.3 3.8-1.3 3.8-1.3 3.3 4.5 6.8 1.8 8 4.6 1.5 3.4 4.7 10.8 5.8 13.3 1.1 2.5 3.6 4.8 5.4 4.2 1.8-.7 7.9-3 10.3-3.9 2.3-.9 2.9-3 2.2-4.6-.8-1.8-3.9-2.3-4.8-4.4-.9-2.1-3.8-8.7-4.7-10.8-1.2-2.8 1.3-5.2 4.8-5.5 24.5-2.5 29 12.6 37.4 9.2 6.3-2.7 5-21.3-2.9-39.8zM76.4 60c-1.4.6-11.1-7-17.2-21.3-6.2-14.3-5.4-27.4-3.9-28 1.4-.6 10.8 8.6 17 22.9 6 14.3 5.5 25.8 4.1 26.4z"/></svg><svg fill="#0eb493" viewBox="0 0 78 78" id="development-icon" xmlns="http://www.w3.org/2000/svg"><path d="M71.8 6.2C64.6-1 59.2.1 59.2.1L33.9 25.3 5 54.2 0 78l23.8-5.1L52.7 44 78 18.7c-.1.1 1-5.3-6.2-12.5zM22.4 70.1l-8.1 1.7c-.8-1.5-1.7-2.9-3.5-4.7-1.7-1.7-3.2-2.7-4.7-3.5l1.8-8.1 2.3-2.3s4.4.1 9.4 5.1 5.1 9.4 5.1 9.4l-2.3 2.4z"/></svg><svg fill="#c3c6c7" viewBox="0 0 86 71.3" id="heart" xmlns="http://www.w3.org/2000/svg"><path d="M78.9 7.1C70.5-.6 57-.6 48.6 7.1L43 12.3l-5.7-5.2C29-.6 15.4-.6 7.1 7.1c-9.4 8.6-9.4 22.6 0 31.3l35.9 33 35.9-33c9.5-8.7 9.5-22.7 0-31.3zm-5.3 26.1L43 61.7 12.4 33.2c-3.1-2.8-4.3-6.6-4.3-10.5 0-3.9.7-7.2 3.8-10 2.7-2.5 6.4-3.9 10.3-3.9 3.9 0 7.6 2.4 10.3 4.9L43 22.8l10.5-9.1c2.7-2.5 6.4-4.9 10.3-4.9 3.9 0 7.6 1.4 10.3 3.9 3.1 2.8 3.8 6.1 3.8 10 0 3.9-1.2 7.6-4.3 10.5z"/></svg></svg>